<?xml version="1.0" encoding="UTF-8" standalone="no"?>
<svg
   version="1.1"
   width="85"
   height="25"
   shape-rendering="crispEdges"
   id="svg1275"
   sodipodi:docname="logo.svg"
   inkscape:version="1.4 (e7c3feb100, 2024-10-09)"
   xmlns:inkscape="http://www.inkscape.org/namespaces/inkscape"
   xmlns:sodipodi="http://sodipodi.sourceforge.net/DTD/sodipodi-0.dtd"
   xmlns="http://www.w3.org/2000/svg"
   xmlns:svg="http://www.w3.org/2000/svg">
  <defs
     id="defs1275" />
  <sodipodi:namedview
     id="namedview1275"
     pagecolor="#ffffff"
     bordercolor="#000000"
     borderopacity="0.25"
     inkscape:showpageshadow="2"
     inkscape:pageopacity="0.0"
     inkscape:pagecheckerboard="0"
     inkscape:deskcolor="#d1d1d1"
     inkscape:zoom="8"
     inkscape:cx="27.25"
     inkscape:cy="17.25"
     inkscape:window-width="1920"
     inkscape:window-height="1011"
     inkscape:window-x="0"
     inkscape:window-y="0"
     inkscape:window-maximized="1"
     inkscape:current-layer="svg1275" />
  <path
     id="rect1"
     d="M 0 0 L 0 1 L 0 2 L 0 3 L 0 4 L 0 5 L 0 6 L 0 7 L 0 8 L 0 9 L 0 10 L 0 11 L 0 12 L 0 13 L 0 14 L 0 15 L 0 16 L 0 17 L 0 18 L 0 19 L 0 20 L 0 21 L 0 22 L 0 23 L 0 24 L 0 25 L 1 25 L 2 25 L 3 25 L 4 25 L 5 25 L 5 24 L 5 23 L 5 22 L 5 21 L 5 20 L 6 20 L 7 20 L 8 20 L 9 20 L 10 20 L 10 21 L 10 22 L 10 23 L 10 24 L 10 25 L 11 25 L 12 25 L 13 25 L 14 25 L 15 25 L 16 25 L 17 25 L 18 25 L 19 25 L 20 25 L 21 25 L 22 25 L 23 25 L 24 25 L 25 25 L 25 24 L 25 23 L 25 22 L 25 21 L 25 20 L 25 19 L 25 18 L 25 17 L 25 16 L 25 15 L 25 14 L 25 13 L 25 12 L 25 11 L 25 10 L 25 9 L 25 8 L 25 7 L 25 6 L 25 5 L 25 4 L 25 3 L 25 2 L 25 1 L 25 0 L 24 0 L 23 0 L 22 0 L 21 0 L 20 0 L 20 1 L 20 2 L 20 3 L 20 4 L 20 5 L 19 5 L 18 5 L 17 5 L 16 5 L 15 5 L 15 4 L 15 3 L 15 2 L 15 1 L 15 0 L 14 0 L 13 0 L 12 0 L 11 0 L 10 0 L 9 0 L 8 0 L 7 0 L 6 0 L 5 0 L 4 0 L 3 0 L 2 0 L 1 0 L 0 0 z "
     style="fill:#000000;fill-opacity:1" />
  <path
     id="rect21"
     d="M 30 0 L 30 1 L 30 2 L 30 3 L 30 4 L 30 5 L 30 6 L 30 7 L 30 8 L 30 9 L 30 10 L 30 11 L 30 12 L 30 13 L 30 14 L 30 15 L 31 15 L 32 15 L 33 15 L 34 15 L 35 15 L 35 16 L 35 17 L 35 18 L 35 19 L 35 20 L 34 20 L 33 20 L 32 20 L 31 20 L 30 20 L 30 21 L 30 22 L 30 23 L 30 24 L 30 25 L 31 25 L 32 25 L 33 25 L 34 25 L 35 25 L 36 25 L 37 25 L 38 25 L 39 25 L 40 25 L 41 25 L 42 25 L 43 25 L 44 25 L 45 25 L 46 25 L 47 25 L 48 25 L 49 25 L 50 25 L 51 25 L 52 25 L 53 25 L 54 25 L 55 25 L 55 24 L 55 23 L 55 22 L 55 21 L 55 20 L 55 19 L 55 18 L 55 17 L 55 16 L 55 15 L 55 14 L 55 13 L 55 12 L 55 11 L 55 10 L 54 10 L 53 10 L 52 10 L 51 10 L 50 10 L 50 9 L 50 8 L 50 7 L 50 6 L 50 5 L 51 5 L 52 5 L 53 5 L 54 5 L 55 5 L 55 4 L 55 3 L 55 2 L 55 1 L 55 0 L 54 0 L 53 0 L 52 0 L 51 0 L 50 0 L 49 0 L 48 0 L 47 0 L 46 0 L 45 0 L 44 0 L 43 0 L 42 0 L 41 0 L 40 0 L 39 0 L 38 0 L 37 0 L 36 0 L 35 0 L 34 0 L 33 0 L 32 0 L 31 0 L 30 0 z "
     style="fill:#000000;fill-opacity:1" />
  <path
     id="rect971"
     d="M 60 20 L 60 21 L 60 22 L 60 23 L 60 24 L 60 25 L 61 25 L 62 25 L 63 25 L 64 25 L 65 25 L 66 25 L 67 25 L 68 25 L 69 25 L 70 25 L 71 25 L 72 25 L 73 25 L 74 25 L 75 25 L 76 25 L 77 25 L 78 25 L 79 25 L 80 25 L 81 25 L 82 25 L 83 25 L 84 25 L 85 25 L 85 24 L 85 23 L 85 22 L 85 21 L 85 20 L 84 20 L 83 20 L 82 20 L 81 20 L 80 20 L 79 20 L 78 20 L 77 20 L 76 20 L 75 20 L 74 20 L 73 20 L 72 20 L 71 20 L 70 20 L 69 20 L 68 20 L 67 20 L 66 20 L 65 20 L 64 20 L 63 20 L 62 20 L 61 20 L 60 20 z "
     style="fill:#ff0000;fill-opacity:1" />
</svg>
