<?xml version="1.0" encoding="UTF-8" standalone="no"?>
<svg
   version="1.1"
   width="25"
   height="25"
   shape-rendering="crispEdges"
   id="svg575"
   sodipodi:docname="dark-mode-favicon.svg"
   inkscape:version="1.4 (e7c3feb100, 2024-10-09)"
   xmlns:inkscape="http://www.inkscape.org/namespaces/inkscape"
   xmlns:sodipodi="http://sodipodi.sourceforge.net/DTD/sodipodi-0.dtd"
   xmlns="http://www.w3.org/2000/svg"
   xmlns:svg="http://www.w3.org/2000/svg">
  <defs
     id="defs575" />
  <sodipodi:namedview
     id="namedview575"
     pagecolor="#ffffff"
     bordercolor="#000000"
     borderopacity="0.25"
     inkscape:showpageshadow="2"
     inkscape:pageopacity="0.0"
     inkscape:pagecheckerboard="0"
     inkscape:deskcolor="#d1d1d1"
     inkscape:zoom="16"
     inkscape:cx="6.875"
     inkscape:cy="12.4375"
     inkscape:window-width="1920"
     inkscape:window-height="1011"
     inkscape:window-x="0"
     inkscape:window-y="0"
     inkscape:window-maximized="1"
     inkscape:current-layer="svg575" />
  <path
     id="rect1"
     d="M 0 0 L 0 1 L 0 2 L 0 3 L 0 4 L 0 5 L 0 6 L 0 7 L 0 8 L 0 9 L 0 10 L 0 11 L 0 12 L 0 13 L 0 14 L 0 15 L 0 16 L 0 17 L 0 18 L 0 19 L 0 20 L 0 21 L 0 22 L 0 23 L 0 24 L 0 25 L 1 25 L 2 25 L 3 25 L 4 25 L 5 25 L 5 24 L 5 23 L 5 22 L 5 21 L 5 20 L 6 20 L 7 20 L 8 20 L 9 20 L 10 20 L 10 21 L 10 22 L 10 23 L 10 24 L 10 25 L 11 25 L 12 25 L 13 25 L 14 25 L 15 25 L 16 25 L 17 25 L 18 25 L 19 25 L 20 25 L 21 25 L 22 25 L 23 25 L 24 25 L 25 25 L 25 24 L 25 23 L 25 22 L 25 21 L 25 20 L 25 19 L 25 18 L 25 17 L 25 16 L 25 15 L 25 14 L 25 13 L 25 12 L 25 11 L 25 10 L 25 9 L 25 8 L 25 7 L 25 6 L 25 5 L 25 4 L 25 3 L 25 2 L 25 1 L 25 0 L 24 0 L 23 0 L 22 0 L 21 0 L 20 0 L 20 1 L 20 2 L 20 3 L 20 4 L 20 5 L 19 5 L 18 5 L 17 5 L 16 5 L 15 5 L 15 4 L 15 3 L 15 2 L 15 1 L 15 0 L 14 0 L 13 0 L 12 0 L 11 0 L 10 0 L 9 0 L 8 0 L 7 0 L 6 0 L 5 0 L 4 0 L 3 0 L 2 0 L 1 0 L 0 0 z "
     style="fill:#ffffff;fill-opacity:1" />
</svg>
